<svg width="14" height="19" viewBox="0 0 14 19" fill="none" xmlns="http://www.w3.org/2000/svg">
<path d="M0 0V16H0.0510001C-0.0231348 16.3632 -0.01558 16.7383 0.0731177 17.0982C0.161815 17.4581 0.329436 17.7938 0.563843 18.0809C0.79825 18.3681 1.09358 18.5995 1.42844 18.7585C1.76331 18.9174 2.12933 18.9999 2.5 19H13V16H14V0H0ZM11 17H2.5C2.36739 17 2.24021 16.9473 2.14645 16.8536C2.05268 16.7598 2 16.6326 2 16.5C2 16.3674 2.05268 16.2402 2.14645 16.1464C2.24021 16.0527 2.36739 16 2.5 16H11V17ZM2.5 14C2.33204 14.0002 2.16453 14.0172 2 14.051V2H12V14H2.5Z" fill="#11142D"/>
</svg>
