<svg width="22" height="20" viewBox="0 0 22 20" fill="none" xmlns="http://www.w3.org/2000/svg">
<path fill-rule="evenodd" clip-rule="evenodd" d="M11.001 19.5707L2.51597 11.0857C0.176969 8.7467 0.176969 4.9397 2.51597 2.6007C4.85497 0.260703 8.66197 0.260703 11.001 2.6007C13.34 0.260703 17.147 0.260703 19.486 2.6007C21.825 4.9397 21.825 8.7467 19.486 11.0857L11.001 19.5707ZM6.75797 2.8427C5.68997 2.8427 4.68497 3.2587 3.92897 4.0137C2.36897 5.5737 2.36897 8.1117 3.92897 9.6707L11.001 16.7427L18.072 9.6717C19.632 8.1117 19.632 5.5737 18.072 4.0147C16.561 2.5037 13.926 2.5037 12.415 4.0147C12.218 4.2117 12.033 4.4517 11.851 4.7447L11.001 6.1167L10.151 4.7447C9.96897 4.4507 9.78397 4.2117 9.58697 4.0147C8.83197 3.2587 7.82697 2.8427 6.75797 2.8427Z" fill="#9A9AB0"/>
</svg>
